<svg width="74" height="74" viewBox="0 0 74 74" fill="none" xmlns="http://www.w3.org/2000/svg">
<path d="M16.5625 3.8125H46.4912C47.4194 3.8125 48.3095 4.18158 48.9658 4.83789L59.9121 15.7842C60.5684 16.4405 60.9375 17.3306 60.9375 18.2588V66.6875C60.9375 68.6205 59.3705 70.1875 57.4375 70.1875H16.5625C14.6295 70.1875 13.0625 68.6205 13.0625 66.6875V7.3125C13.0625 5.3795 14.6295 3.8125 16.5625 3.8125Z" fill="white" stroke="#BBBBBB" stroke-width="3"/>
<path d="M46.5483 3.58057V16.4031C46.5483 17.2316 47.2199 17.9031 48.0483 17.9031H60.8709" stroke="#BBBBBB" stroke-width="3"/>
<path d="M37.4259 25.0841C39.1919 25.3688 40.8846 26.0309 42.3848 27.0333C44.4419 28.4079 46.0455 30.3618 46.9923 32.6475C47.939 34.9333 48.1869 37.4485 47.7042 39.8751C47.2215 42.3018 46.0299 44.5308 44.2804 46.2804C42.5308 48.0299 40.3018 49.2215 37.8751 49.7042C35.4485 50.1868 32.9333 49.939 30.6475 48.9923C28.3618 48.0455 26.4079 46.4419 25.0333 44.3848C24.0309 42.8846 23.3688 41.1919 23.0841 39.4259C22.9083 38.3354 23.8204 37.4347 24.9249 37.4347H33.4347C34.5391 37.4346 35.4346 36.5391 35.4347 35.4347V26.9249C35.4347 25.8204 36.3355 24.9083 37.4259 25.0841ZM29.2764 23.0304C30.3608 22.8197 31.2647 23.7354 31.2647 24.8399V31.2647C31.2646 32.3691 30.3691 33.2646 29.2647 33.2647H22.8399C21.7354 33.2647 20.8197 32.3608 21.0304 31.2764C21.1632 30.5924 21.3649 29.9214 21.6329 29.2745C22.1568 28.0098 22.9247 26.8606 23.8927 25.8927C24.8607 24.9246 26.0107 24.1568 27.2755 23.6329C27.9222 23.365 28.5926 23.1632 29.2764 23.0304Z" fill="#FAC299"/>
<path d="M37 41C37 38.7909 38.7909 37 41 37H60.75C62.9591 37 64.75 38.7909 64.75 41V60.75C64.75 62.9591 62.9591 64.75 60.75 64.75H41C38.7909 64.75 37 62.9591 37 60.75V41Z" fill="#F36700"/>
<path d="M50.6317 42C52.802 42 54.402 42.4762 55.4317 43.4286C56.4772 44.3651 57 45.6746 57 47.3571C57 48.119 56.8891 48.8492 56.6673 49.5476C56.4455 50.2302 56.0733 50.8413 55.5505 51.381C55.0436 51.9206 54.3703 52.3492 53.5307 52.6667C52.7069 52.9841 51.6851 53.1429 50.4653 53.1429H49.0396V59H45V42H50.6317ZM50.4891 45.3095H49.0396V49.8333H50.1089C50.6634 49.8333 51.1465 49.754 51.5584 49.5952C51.9861 49.4365 52.3188 49.1825 52.5564 48.8333C52.7941 48.4841 52.9129 48.0317 52.9129 47.4762C52.9129 46.7778 52.7149 46.246 52.3188 45.881C51.9228 45.5 51.3129 45.3095 50.4891 45.3095Z" fill="white"/>
</svg>
