<svg width="74" height="74" viewBox="0 0 74 74" fill="none" xmlns="http://www.w3.org/2000/svg">
<path d="M16.5625 3.8125H46.4912C47.4194 3.8125 48.3095 4.18158 48.9658 4.83789L59.9121 15.7842C60.5684 16.4405 60.9375 17.3306 60.9375 18.2588V66.6875C60.9375 68.6205 59.3705 70.1875 57.4375 70.1875H16.5625C14.6295 70.1875 13.0625 68.6205 13.0625 66.6875V7.3125C13.0625 5.3795 14.6295 3.8125 16.5625 3.8125Z" fill="white" stroke="#BBBBBB" stroke-width="3"/>
<path d="M46.5484 3.58057V16.4031C46.5484 17.2316 47.22 17.9031 48.0484 17.9031H60.871" stroke="#BBBBBB" stroke-width="3"/>
<path d="M30.375 46.25C31.4796 46.25 32.375 47.1454 32.375 48.25V48.875C32.375 49.9796 31.4796 50.875 30.375 50.875H22.8125C21.7079 50.875 20.8125 49.9796 20.8125 48.875V48.25C20.8125 47.1454 21.7079 46.25 22.8125 46.25H30.375ZM30.375 37C31.4796 37 32.375 37.8954 32.375 39V39.625C32.375 40.7296 31.4796 41.625 30.375 41.625H22.8125C21.7079 41.625 20.8125 40.7296 20.8125 39.625V39C20.8125 37.8954 21.7079 37 22.8125 37H30.375ZM51.1875 27.75C52.2921 27.75 53.1875 28.6454 53.1875 29.75V30.375C53.1875 31.4796 52.2921 32.375 51.1875 32.375H22.8125C21.7079 32.375 20.8125 31.4796 20.8125 30.375V29.75C20.8125 28.6454 21.7079 27.75 22.8125 27.75H51.1875Z" fill="#A9CBDD"/>
<path d="M37 41C37 38.7909 38.7909 37 41 37H60.75C62.9591 37 64.75 38.7909 64.75 41V60.75C64.75 62.9591 62.9591 64.75 60.75 64.75H41C38.7909 64.75 37 62.9591 37 60.75V41Z" fill="#287CA9"/>
<path d="M61 44L57.3692 58H53.3529L51.6694 51.2353C51.6288 51.0915 51.5815 50.8824 51.5274 50.6078C51.4733 50.3203 51.4057 50.0065 51.3245 49.6667C51.2569 49.3137 51.1961 48.9804 51.142 48.6667C51.0879 48.3399 51.0473 48.0784 51.0203 47.8824C50.9932 48.0784 50.9459 48.3399 50.8783 48.6667C50.8242 48.9804 50.7634 49.3137 50.6957 49.6667C50.6281 50.0065 50.5605 50.3203 50.4929 50.6078C50.4388 50.8824 50.3915 51.0915 50.3509 51.2353L48.6471 58H44.6511L41 44H44.3671L46.0913 51.3529C46.1454 51.549 46.2062 51.8105 46.2738 52.1373C46.3414 52.451 46.4091 52.7908 46.4767 53.1569C46.5443 53.5098 46.6051 53.8562 46.6592 54.1961C46.7268 54.5229 46.7742 54.8039 46.8012 55.0392C46.8418 54.7255 46.8959 54.366 46.9635 53.9608C47.0446 53.5556 47.1258 53.1438 47.2069 52.7255C47.288 52.3072 47.3692 51.915 47.4503 51.549C47.5314 51.183 47.6058 50.8889 47.6734 50.6667L49.3976 44H52.6227L54.3469 50.6667C54.3874 50.8889 54.4483 51.183 54.5294 51.549C54.6241 51.915 54.712 52.3137 54.7931 52.7451C54.8878 53.1634 54.9689 53.5752 55.0365 53.9804C55.1041 54.3856 55.1582 54.7386 55.1988 55.0392C55.2393 54.7124 55.3002 54.3203 55.3813 53.8627C55.476 53.3922 55.5707 52.9281 55.6653 52.4706C55.76 52 55.8411 51.634 55.9087 51.3725L57.6329 44H61Z" fill="white"/>
</svg>
