<svg width="62" height="88" viewBox="0 0 62 88" fill="none" xmlns="http://www.w3.org/2000/svg">
<path d="M59.5145 19.2577V78.4949C59.5145 78.9925 59.3166 79.4697 58.9642 79.8216C58.6119 80.1735 58.134 80.3711 57.6357 80.3711H5.02967C4.53138 80.3711 4.0535 80.1735 3.70116 79.8216C3.34882 79.4697 3.15088 78.9925 3.15088 78.4949V9.87629C3.15088 9.37867 3.34882 8.90142 3.70116 8.54955C4.0535 8.19768 4.53138 8 5.02967 8H48.2418L59.5145 19.2577Z" fill="#214479"/>
<path opacity="0.2" d="M59.5144 19.2577H50.1205C49.6222 19.2577 49.1443 19.0601 48.792 18.7082C48.4396 18.3563 48.2417 17.8791 48.2417 17.3814V8L59.5144 19.2577Z" fill="black"/>
<path d="M21.1406 68.6348C21.1406 69.5996 20.9551 70.4062 20.584 71.0547C20.2168 71.6992 19.6836 72.1855 18.9844 72.5137C18.2852 72.8379 17.4434 73 16.459 73H14.0332V64.4336H16.7227C17.6211 64.4336 18.4004 64.5938 19.0605 64.9141C19.7207 65.2305 20.2324 65.7012 20.5957 66.3262C20.959 66.9473 21.1406 67.7168 21.1406 68.6348ZM19.2539 68.6816C19.2539 68.0488 19.1602 67.5293 18.9727 67.123C18.7891 66.7129 18.5156 66.4102 18.1523 66.2148C17.793 66.0195 17.3477 65.9219 16.8164 65.9219H15.8496V71.5H16.6289C17.5156 71.5 18.1738 71.2637 18.6035 70.791C19.0371 70.3184 19.2539 69.6152 19.2539 68.6816ZM30.6914 68.7051C30.6914 69.3652 30.6094 69.9668 30.4453 70.5098C30.2812 71.0488 30.0312 71.5137 29.6953 71.9043C29.3633 72.2949 28.9414 72.5957 28.4297 72.8066C27.918 73.0137 27.3125 73.1172 26.6133 73.1172C25.9141 73.1172 25.3086 73.0137 24.7969 72.8066C24.2852 72.5957 23.8613 72.2949 23.5254 71.9043C23.1934 71.5137 22.9453 71.0469 22.7812 70.5039C22.6172 69.9609 22.5352 69.3574 22.5352 68.6934C22.5352 67.8066 22.6797 67.0352 22.9688 66.3789C23.2617 65.7188 23.7109 65.207 24.3164 64.8438C24.9219 64.4805 25.6914 64.2988 26.625 64.2988C27.5547 64.2988 28.3184 64.4805 28.916 64.8438C29.5176 65.207 29.9629 65.7188 30.252 66.3789C30.5449 67.0391 30.6914 67.8145 30.6914 68.7051ZM24.4395 68.7051C24.4395 69.3027 24.5137 69.8184 24.6621 70.252C24.8145 70.6816 25.0508 71.0137 25.3711 71.248C25.6914 71.4785 26.1055 71.5938 26.6133 71.5938C27.1289 71.5938 27.5469 71.4785 27.8672 71.248C28.1875 71.0137 28.4199 70.6816 28.5645 70.252C28.7129 69.8184 28.7871 69.3027 28.7871 68.7051C28.7871 67.8066 28.6191 67.0996 28.2832 66.584C27.9473 66.0684 27.3945 65.8105 26.625 65.8105C26.1133 65.8105 25.6953 65.9277 25.3711 66.1621C25.0508 66.3926 24.8145 66.7246 24.6621 67.1582C24.5137 67.5879 24.4395 68.1035 24.4395 68.7051ZM36.1055 65.8223C35.7578 65.8223 35.4492 65.8906 35.1797 66.0273C34.9141 66.1602 34.6895 66.3535 34.5059 66.6074C34.3262 66.8613 34.1895 67.168 34.0957 67.5273C34.002 67.8867 33.9551 68.291 33.9551 68.7402C33.9551 69.3457 34.0293 69.8633 34.1777 70.293C34.3301 70.7188 34.5645 71.0449 34.8809 71.2715C35.1973 71.4941 35.6055 71.6055 36.1055 71.6055C36.4531 71.6055 36.8008 71.5664 37.1484 71.4883C37.5 71.4102 37.8809 71.2988 38.291 71.1543V72.6777C37.9121 72.834 37.5391 72.9453 37.1719 73.0117C36.8047 73.082 36.3926 73.1172 35.9355 73.1172C35.0527 73.1172 34.3262 72.9355 33.7559 72.5723C33.1895 72.2051 32.7695 71.6934 32.4961 71.0371C32.2227 70.377 32.0859 69.6074 32.0859 68.7285C32.0859 68.0801 32.1738 67.4863 32.3496 66.9473C32.5254 66.4082 32.7832 65.9414 33.123 65.5469C33.4629 65.1523 33.8828 64.8477 34.3828 64.6328C34.8828 64.418 35.457 64.3105 36.1055 64.3105C36.5312 64.3105 36.957 64.3652 37.3828 64.4746C37.8125 64.5801 38.2227 64.7266 38.6133 64.9141L38.0273 66.3906C37.707 66.2383 37.3848 66.1055 37.0605 65.9922C36.7363 65.8789 36.418 65.8223 36.1055 65.8223ZM47.0449 73H44.9707L42.9785 69.7598L40.9863 73H39.041L41.8828 68.582L39.2227 64.4336H41.2266L43.0723 67.5156L44.8828 64.4336H46.8398L44.1504 68.6816L47.0449 73Z" fill="white"/>
<path d="M39.2708 32.0596L35.736 48.1643L31.8084 32.0596H30.1251H28.4418L24.5142 48.1643L20.9794 32.0596H17.7251L22.4943 52.3396H26.0853L30.1251 35.698L34.1649 52.3396H37.7559L42.5251 32.0596H39.2708Z" fill="white"/>
</svg>