<svg width="74" height="74" viewBox="0 0 74 74" fill="none" xmlns="http://www.w3.org/2000/svg">
<path d="M16.5625 3.8125H46.4912C47.4194 3.8125 48.3095 4.18158 48.9658 4.83789L59.9121 15.7842C60.5684 16.4405 60.9375 17.3306 60.9375 18.2588V66.6875C60.9375 68.6205 59.3705 70.1875 57.4375 70.1875H16.5625C14.6295 70.1875 13.0625 68.6205 13.0625 66.6875V7.3125C13.0625 5.3795 14.6295 3.8125 16.5625 3.8125Z" fill="white" stroke="#BBBBBB" stroke-width="3"/>
<path d="M46.5483 3.58057V16.4031C46.5483 17.2316 47.2199 17.9031 48.0483 17.9031H60.8709" stroke="#BBBBBB" stroke-width="3"/>
<path d="M31.7168 47.4121C33.0567 47.4122 34.1424 48.498 34.1426 49.8379C34.1426 51.1779 33.0568 52.2645 31.7168 52.2646H22.4268C21.0867 52.2646 20 51.178 20 49.8379C20.0002 48.4979 21.0868 47.4121 22.4268 47.4121H31.7168ZM31.7168 37.7061C33.0567 37.7062 34.1424 38.7919 34.1426 40.1318C34.1426 41.4719 33.0568 42.5585 31.7168 42.5586H22.4268C21.0867 42.5586 20 41.4719 20 40.1318C20.0002 38.7919 21.0867 37.7061 22.4268 37.7061H31.7168ZM31.7168 28C33.0568 28.0001 34.1426 29.0867 34.1426 30.4268C34.1424 31.7666 33.0567 32.8524 31.7168 32.8525H22.4268C21.0868 32.8525 20.0002 31.7667 20 30.4268C20 29.0867 21.0867 28 22.4268 28H31.7168ZM50.5742 28C51.9142 28.0001 53 29.0867 53 30.4268C52.9998 31.7666 51.9141 32.8524 50.5742 32.8525H41.2842C39.9442 32.8525 38.8576 31.7667 38.8574 30.4268C38.8574 29.0867 39.9441 28 41.2842 28H50.5742Z" fill="#B0D9AD"/>
<path d="M37 41C37 38.7909 38.7909 37 41 37H60.75C62.9591 37 64.75 38.7909 64.75 41V60.75C64.75 62.9591 62.9591 64.75 60.75 64.75H41C38.7909 64.75 37 62.9591 37 60.75V41Z" fill="#3AA133"/>
<path d="M59 59H54.4551L50.9072 53.4426L47.3594 59H43L48.4957 50.7759L43.3246 43H47.7072L51.0232 48.3782L54.2232 43H58.6058L53.4116 51.0448L59 59Z" fill="white"/>
</svg>
