<svg width="62" height="88" viewBox="0 0 62 88" fill="none" xmlns="http://www.w3.org/2000/svg">
<path d="M58.7401 19.1134V77.5911C58.7401 78.0823 58.5447 78.5534 58.1969 78.9008C57.8491 79.2482 57.3773 79.4433 56.8854 79.4433H4.95382C4.46192 79.4433 3.99017 79.2482 3.64235 78.9008C3.29453 78.5534 3.09912 78.0823 3.09912 77.5911V9.85223C3.09912 9.36099 3.29453 8.88987 3.64235 8.54251C3.99017 8.19515 4.46192 8 4.95382 8H47.6119L58.7401 19.1134Z" fill="#DD682B"/>
<path fill-rule="evenodd" clip-rule="evenodd" d="M30.8998 39.4509V30.2109C33.3663 30.2109 35.7318 31.1844 37.4759 32.9173C39.22 34.6501 40.1998 37.0003 40.1998 39.4509H30.8998ZM35.9259 47.5246C34.1818 49.2574 31.8163 50.2309 29.3498 50.2309C26.8833 50.2309 24.5178 49.2574 22.7737 47.5246C21.0296 45.7918 20.0498 43.4415 20.0498 40.9909C20.0498 38.5403 21.0296 36.1901 22.7737 34.4573C24.5178 32.7244 26.8833 31.7509 29.3498 31.7509V40.9909H38.6498C38.6498 43.4415 37.67 45.7918 35.9259 47.5246Z" fill="white"/>
<path opacity="0.2" d="M58.7405 19.1134H49.467C48.9751 19.1134 48.5034 18.9183 48.1555 18.5709C47.8077 18.2235 47.6123 17.7524 47.6123 17.2612V8L58.7405 19.1134Z" fill="black"/>
<path d="M18.8027 63.4336C19.9082 63.4336 20.7148 63.6719 21.2227 64.1484C21.7305 64.6211 21.9844 65.2734 21.9844 66.1055C21.9844 66.4805 21.9277 66.8398 21.8145 67.1836C21.7012 67.5234 21.5156 67.8262 21.2578 68.0918C21.0039 68.3574 20.6641 68.5684 20.2383 68.7246C19.8125 68.877 19.2871 68.9531 18.6621 68.9531H17.8828V72H16.0664V63.4336H18.8027ZM18.709 64.9219H17.8828V67.4648H18.4805C18.8203 67.4648 19.1152 67.4199 19.3652 67.3301C19.6152 67.2402 19.8086 67.0996 19.9453 66.9082C20.082 66.7168 20.1504 66.4707 20.1504 66.1699C20.1504 65.748 20.0332 65.4355 19.7988 65.2324C19.5645 65.0254 19.2012 64.9219 18.709 64.9219ZM26.3379 63.4336C27.4434 63.4336 28.25 63.6719 28.7578 64.1484C29.2656 64.6211 29.5195 65.2734 29.5195 66.1055C29.5195 66.4805 29.4629 66.8398 29.3496 67.1836C29.2363 67.5234 29.0508 67.8262 28.793 68.0918C28.5391 68.3574 28.1992 68.5684 27.7734 68.7246C27.3477 68.877 26.8223 68.9531 26.1973 68.9531H25.418V72H23.6016V63.4336H26.3379ZM26.2441 64.9219H25.418V67.4648H26.0156C26.3555 67.4648 26.6504 67.4199 26.9004 67.3301C27.1504 67.2402 27.3438 67.0996 27.4805 66.9082C27.6172 66.7168 27.6855 66.4707 27.6855 66.1699C27.6855 65.748 27.5684 65.4355 27.334 65.2324C27.0996 65.0254 26.7363 64.9219 26.2441 64.9219ZM34.4414 72H32.625V64.9453H30.2988V63.4336H36.7676V64.9453H34.4414V72ZM45.0117 72H42.9375L40.9453 68.7598L38.9531 72H37.0078L39.8496 67.582L37.1895 63.4336H39.1934L41.0391 66.5156L42.8496 63.4336H44.8066L42.1172 67.6816L45.0117 72Z" fill="white"/>
</svg>