<svg width="62" height="88" viewBox="0 0 62 88" fill="none" xmlns="http://www.w3.org/2000/svg">
<path d="M58.7401 19.1134V77.5911C58.7401 78.0823 58.5447 78.5534 58.1969 78.9008C57.8491 79.2482 57.3773 79.4433 56.8854 79.4433H4.95382C4.46192 79.4433 3.99017 79.2482 3.64235 78.9008C3.29453 78.5534 3.09912 78.0823 3.09912 77.5911V9.85223C3.09912 9.36099 3.29453 8.88987 3.64235 8.54251C3.99017 8.19515 4.46192 8 4.95382 8H47.6119L58.7401 19.1134Z" fill="#BA4C3F"/>
<path opacity="0.2" d="M58.7405 19.1134H49.467C48.9751 19.1134 48.5034 18.9183 48.1555 18.5709C47.8077 18.2235 47.6123 17.7524 47.6123 17.2612V8L58.7405 19.1134Z" fill="black"/>
<path d="M22.3125 63.4336C23.418 63.4336 24.2246 63.6719 24.7324 64.1484C25.2402 64.6211 25.4941 65.2734 25.4941 66.1055C25.4941 66.4805 25.4375 66.8398 25.3242 67.1836C25.2109 67.5234 25.0254 67.8262 24.7676 68.0918C24.5137 68.3574 24.1738 68.5684 23.748 68.7246C23.3223 68.877 22.7969 68.9531 22.1719 68.9531H21.3926V72H19.5762V63.4336H22.3125ZM22.2188 64.9219H21.3926V67.4648H21.9902C22.3301 67.4648 22.625 67.4199 22.875 67.3301C23.125 67.2402 23.3184 67.0996 23.4551 66.9082C23.5918 66.7168 23.6602 66.4707 23.6602 66.1699C23.6602 65.748 23.543 65.4355 23.3086 65.2324C23.0742 65.0254 22.7109 64.9219 22.2188 64.9219ZM34.2188 67.6348C34.2188 68.5996 34.0332 69.4062 33.6621 70.0547C33.2949 70.6992 32.7617 71.1855 32.0625 71.5137C31.3633 71.8379 30.5215 72 29.5371 72H27.1113V63.4336H29.8008C30.6992 63.4336 31.4785 63.5938 32.1387 63.9141C32.7988 64.2305 33.3105 64.7012 33.6738 65.3262C34.0371 65.9473 34.2188 66.7168 34.2188 67.6348ZM32.332 67.6816C32.332 67.0488 32.2383 66.5293 32.0508 66.123C31.8672 65.7129 31.5938 65.4102 31.2305 65.2148C30.8711 65.0195 30.4258 64.9219 29.8945 64.9219H28.9277V70.5H29.707C30.5938 70.5 31.252 70.2637 31.6816 69.791C32.1152 69.3184 32.332 68.6152 32.332 67.6816ZM37.7812 72H35.9941V63.4336H40.9043V64.9219H37.7812V67.1309H40.6875V68.6133H37.7812V72Z" fill="white"/>
<path d="M25.4969 44.272C26.2875 42.7218 27.2081 40.9691 27.9387 39.2213L28.2289 38.5301C27.2782 34.9506 26.7028 32.0772 27.2281 30.2208C27.3352 29.9712 27.5199 29.7616 27.7555 29.6223C27.9911 29.483 28.2655 29.4211 28.5391 29.4457H28.9794C29.81 29.4457 30.2003 30.4776 30.2453 30.8824C30.2529 31.4962 30.172 32.108 30.0051 32.6993C30.0444 32.0696 29.9489 31.4388 29.7249 30.8479C29.3697 30.1073 29.0394 29.6629 28.7442 29.6136C28.6393 29.6968 28.5543 29.8019 28.4955 29.9215C28.4366 30.041 28.4054 30.1719 28.404 30.3048C28.3224 30.8258 28.2839 31.3525 28.2889 31.8797C28.3212 33.4532 28.5652 35.0155 29.0144 36.5256C29.1045 36.259 29.1846 36.0319 29.2546 35.7653C29.3547 35.3901 30.0001 32.8968 30.0001 32.8968C30.0001 32.8968 29.835 36.2146 29.6099 37.2217C29.5598 37.434 29.5048 37.6463 29.4497 37.8586C30.212 40.0126 31.4749 41.9605 33.1374 43.5463C33.801 44.0999 34.5242 44.58 35.2939 44.978C36.7265 44.7641 38.1732 44.6568 39.6221 44.6571C41.2632 44.6571 42.4691 44.9188 42.9545 45.3928C43.1666 45.6155 43.2893 45.9068 43.2997 46.2123C43.2906 46.3786 43.2672 46.5437 43.2297 46.7061C43.2297 46.6172 43.2297 46.2123 41.9287 45.7779C40.893 45.452 38.9266 45.4619 36.6199 45.7038C39.3168 47.0072 41.9437 47.6787 42.7743 47.264C42.9495 47.1488 43.1021 47.0033 43.2247 46.8344C43.1653 47.1148 43.0798 47.3891 42.9695 47.654C42.8059 47.8621 42.5801 48.0141 42.324 48.0885C41.0081 48.439 37.5906 47.6342 34.6085 45.9556C31.2427 46.4597 27.9243 47.2341 24.6863 48.2711C21.7842 53.2527 19.6377 55.5387 17.8764 54.6697L17.2309 54.3488C17.1123 54.255 17.0253 54.1278 16.9815 53.9841C16.9377 53.8403 16.9392 53.6869 16.9858 53.544C17.1909 52.5566 18.4518 51.0755 20.9887 49.5647C21.2639 49.4018 22.4897 48.7698 22.4897 48.7698C22.4897 48.7698 21.5941 49.6289 21.3839 49.7967C19.3825 51.4309 17.8814 53.4848 17.9064 54.2846V54.3537C19.6227 54.1118 22.1945 50.6607 25.5069 44.272H25.4969ZM26.5577 44.8003C26.0023 45.8272 25.4619 46.7752 24.9615 47.6589C27.7206 46.5682 30.5885 45.7673 33.5177 45.2693C33.1374 45.0077 32.7721 44.7361 32.4219 44.4448C30.9035 43.1618 29.6673 41.5858 28.7893 39.8138C28.1515 41.5249 27.3958 43.1909 26.5276 44.8003" fill="white"/>
</svg>