<svg width="74" height="74" viewBox="0 0 74 74" fill="none" xmlns="http://www.w3.org/2000/svg">
<path d="M16.5625 3.8125H46.4912C47.4194 3.8125 48.3095 4.18158 48.9658 4.83789L59.9121 15.7842C60.5684 16.4405 60.9375 17.3306 60.9375 18.2588V66.6875C60.9375 68.6205 59.3705 70.1875 57.4375 70.1875H16.5625C14.6295 70.1875 13.0625 68.6205 13.0625 66.6875V7.3125C13.0625 5.3795 14.6295 3.8125 16.5625 3.8125Z" fill="white" stroke="#BBBBBB" stroke-width="3"/>
<path d="M46.5484 3.58057V16.4031C46.5484 17.2316 47.22 17.9031 48.0484 17.9031H60.871" stroke="#BBBBBB" stroke-width="3"/>
<path d="M30.375 46.25C31.4796 46.25 32.375 47.1454 32.375 48.25V48.875C32.375 49.9796 31.4796 50.875 30.375 50.875H22.8125C21.7079 50.875 20.8125 49.9796 20.8125 48.875V48.25C20.8125 47.1454 21.7079 46.25 22.8125 46.25H30.375ZM30.375 37C31.4796 37 32.375 37.8954 32.375 39V39.625C32.375 40.7296 31.4796 41.625 30.375 41.625H22.8125C21.7079 41.625 20.8125 40.7296 20.8125 39.625V39C20.8125 37.8954 21.7079 37 22.8125 37H30.375ZM51.1875 27.75C52.2921 27.75 53.1875 28.6454 53.1875 29.75V30.375C53.1875 31.4796 52.2921 32.375 51.1875 32.375H22.8125C21.7079 32.375 20.8125 31.4796 20.8125 30.375V29.75C20.8125 28.6454 21.7079 27.75 22.8125 27.75H51.1875Z" fill="#F5B8B0"/>
<path d="M37 41C37 38.7909 38.7909 37 41 37H60.75C62.9591 37 64.75 38.7909 64.75 41V60.75C64.75 62.9591 62.9591 64.75 60.75 64.75H41C38.7909 64.75 37 62.9591 37 60.75V41Z" fill="#E54D39"/>
<path fill-rule="evenodd" clip-rule="evenodd" d="M48.7848 42C48.7848 44.6206 48.0362 47.7114 46.771 50.563C45.501 53.4261 43.7867 55.8756 42 57.3196L43.9413 60C48.7568 56.7563 54.0888 54.5329 59.2481 55.2773L60 52.0552C55.6041 50.5763 52.0768 46.1377 52.0768 42H48.7848ZM50.9317 48.8613C50.6027 49.9032 50.2128 50.9319 49.7719 51.9239C49.5339 52.4612 49.2805 52.9908 49.0085 53.5126C50.5402 52.901 52.1228 52.4208 53.7384 52.1283C52.6618 51.1716 51.7177 50.0728 50.9317 48.8613Z" fill="white"/>
</svg>
