<svg width="62" height="88" viewBox="0 0 62 88" fill="none" xmlns="http://www.w3.org/2000/svg">
<path d="M58.7401 19.1134V77.5911C58.7401 78.0823 58.5447 78.5534 58.1969 78.9008C57.8491 79.2482 57.3773 79.4433 56.8854 79.4433H4.95382C4.46192 79.4433 3.99017 79.2482 3.64235 78.9008C3.29453 78.5534 3.09912 78.0823 3.09912 77.5911V9.85223C3.09912 9.36099 3.29453 8.88987 3.64235 8.54251C3.99017 8.19515 4.46192 8 4.95382 8H47.6119L58.7401 19.1134Z" fill="#1F7244"/>
<path opacity="0.2" d="M58.7405 19.1134H49.467C48.9751 19.1134 48.5034 18.9183 48.1555 18.5709C47.8077 18.2235 47.6123 17.7524 47.6123 17.2612V8L58.7405 19.1134Z" fill="black"/>
<path d="M23.3027 72H21.2285L19.2363 68.7598L17.2441 72H15.2988L18.1406 67.582L15.4805 63.4336H17.4844L19.3301 66.5156L21.1406 63.4336H23.0977L20.4082 67.6816L23.3027 72ZM24.3809 72V63.4336H26.1973V70.5H29.6719V72H24.3809ZM36.2227 69.6211C36.2227 70.1289 36.0996 70.5703 35.8535 70.9453C35.6074 71.3203 35.248 71.6094 34.7754 71.8125C34.3066 72.0156 33.7363 72.1172 33.0645 72.1172C32.7676 72.1172 32.4766 72.0977 32.1914 72.0586C31.9102 72.0195 31.6387 71.9629 31.377 71.8887C31.1191 71.8105 30.873 71.7148 30.6387 71.6016V69.9141C31.0449 70.0938 31.4668 70.2559 31.9043 70.4004C32.3418 70.5449 32.7754 70.6172 33.2051 70.6172C33.502 70.6172 33.7402 70.5781 33.9199 70.5C34.1035 70.4219 34.2363 70.3145 34.3184 70.1777C34.4004 70.041 34.4414 69.8848 34.4414 69.709C34.4414 69.4941 34.3691 69.3105 34.2246 69.1582C34.0801 69.0059 33.8809 68.8633 33.627 68.7305C33.377 68.5977 33.0938 68.4551 32.7773 68.3027C32.5781 68.209 32.3613 68.0957 32.127 67.9629C31.8926 67.8262 31.6699 67.6602 31.459 67.4648C31.248 67.2695 31.0742 67.0332 30.9375 66.7559C30.8047 66.4746 30.7383 66.1387 30.7383 65.748C30.7383 65.2363 30.8555 64.7988 31.0898 64.4355C31.3242 64.0723 31.6582 63.7949 32.0918 63.6035C32.5293 63.4082 33.0449 63.3105 33.6387 63.3105C34.084 63.3105 34.5078 63.3633 34.9102 63.4688C35.3164 63.5703 35.7402 63.7188 36.1816 63.9141L35.5957 65.3262C35.2012 65.166 34.8477 65.043 34.5352 64.957C34.2227 64.8672 33.9043 64.8223 33.5801 64.8223C33.3535 64.8223 33.1602 64.8594 33 64.9336C32.8398 65.0039 32.7188 65.1055 32.6367 65.2383C32.5547 65.3672 32.5137 65.5176 32.5137 65.6895C32.5137 65.8926 32.5723 66.0645 32.6895 66.2051C32.8105 66.3418 32.9902 66.4746 33.2285 66.6035C33.4707 66.7324 33.7715 66.8828 34.1309 67.0547C34.5684 67.2617 34.9414 67.4785 35.25 67.7051C35.5625 67.9277 35.8027 68.1914 35.9707 68.4961C36.1387 68.7969 36.2227 69.1719 36.2227 69.6211ZM44.7012 72H42.627L40.6348 68.7598L38.6426 72H36.6973L39.5391 67.582L36.8789 63.4336H38.8828L40.7285 66.5156L42.5391 63.4336H44.4961L41.8066 67.6816L44.7012 72Z" fill="white"/>
<path d="M31.2809 41.5431L37.5945 31.751H34.5079L29.7376 39.1466L24.9673 31.751H21.8807L28.1943 41.5431L21.6001 51.771H24.6867L29.7376 43.9396L34.7885 51.771H37.8751L31.2809 41.5431Z" fill="white"/>
</svg>